<svg viewBox="0 0 200 200" xmlns="http://www.w3.org/2000/svg" role="img" aria-hidden="true"><defs><linearGradient id="a17g" x1="0" y1="0" x2="0" y2="1"><stop offset="0" stop-color="#fbfcff"/><stop offset="1" stop-color="#dce2f1"/></linearGradient><radialGradient id="a17h" cx=".5" cy=".42" r=".55"><stop offset="0" stop-color="#b1b7c1" stop-opacity=".45"/><stop offset="1" stop-color="#3b4a63" stop-opacity="0"/></radialGradient><linearGradient id="a17b" x1="0" y1="0" x2="1" y2="1"><stop offset="0" stop-color="#939ba9"/><stop offset=".5" stop-color="#536076"/><stop offset="1" stop-color="#232c3b"/></linearGradient><linearGradient id="a17s" x1="0" y1="0" x2="1" y2="1"><stop offset="0" stop-color="#2d5bff"/><stop offset=".55" stop-color="#7c3cff"/><stop offset="1" stop-color="#ff5fa2"/></linearGradient><linearGradient id="a17w" x1="0" y1="0" x2="1" y2="0"><stop offset="0" stop-color="#fff" stop-opacity=".6"/><stop offset="1" stop-color="#fff" stop-opacity="0"/></linearGradient><filter id="a17f" x="-30%" y="-30%" width="160%" height="160%"><feGaussianBlur stdDeviation="5"/></filter></defs><rect width="200" height="200" fill="url(#a17g)"/><rect width="200" height="200" fill="url(#a17h)"/><ellipse cx="100" cy="168" rx="58" ry="7" fill="#0b1020" opacity=".35" filter="url(#a17f)"/><path d="M46 150a54 54 0 0 1 108 0z" fill="url(#a17b)"/><path d="M46 150a54 54 0 0 1 108 0z" fill="url(#a17w)" opacity=".4"/><ellipse cx="100" cy="104" rx="26" ry="6" fill="#0b1020"/><ellipse cx="100" cy="104" rx="26" ry="6" fill="none" stroke="#5fb4ff" stroke-width="2.5"/><ellipse cx="100" cy="104" rx="26" ry="6" fill="none" stroke="#5fb4ff" stroke-width="7" opacity=".25"/><rect x="46" y="150" width="108" height="6" rx="3" fill="#232c3b"/></svg>