<svg viewBox="0 0 200 200" xmlns="http://www.w3.org/2000/svg" role="img" aria-hidden="true"><defs><linearGradient id="a2g" x1="0" y1="0" x2="0" y2="1"><stop offset="0" stop-color="#fbfcff"/><stop offset="1" stop-color="#dce2f1"/></linearGradient><radialGradient id="a2h" cx=".5" cy=".42" r=".55"><stop offset="0" stop-color="#becad7" stop-opacity=".45"/><stop offset="1" stop-color="#5d7a9c" stop-opacity="0"/></radialGradient><linearGradient id="a2b" x1="0" y1="0" x2="1" y2="1"><stop offset="0" stop-color="#a6b6c9"/><stop offset=".5" stop-color="#708aa8"/><stop offset="1" stop-color="#38495e"/></linearGradient><linearGradient id="a2s" x1="0" y1="0" x2="1" y2="1"><stop offset="0" stop-color="#2d5bff"/><stop offset=".55" stop-color="#7c3cff"/><stop offset="1" stop-color="#ff5fa2"/></linearGradient><linearGradient id="a2w" x1="0" y1="0" x2="1" y2="0"><stop offset="0" stop-color="#fff" stop-opacity=".6"/><stop offset="1" stop-color="#fff" stop-opacity="0"/></linearGradient><filter id="a2f" x="-30%" y="-30%" width="160%" height="160%"><feGaussianBlur stdDeviation="5"/></filter></defs><rect width="200" height="200" fill="url(#a2g)"/><rect width="200" height="200" fill="url(#a2h)"/><ellipse cx="100" cy="168" rx="58" ry="7" fill="#0b1020" opacity=".35" filter="url(#a2f)"/><g transform="rotate(-9 70 110) translate(-22 6)"><rect x="52" y="30" width="62" height="136" rx="13" fill="url(#a2b)"/><rect x="74" y="38" width="30" height="30" rx="8" fill="#38495e" stroke="#a6b6c9" stroke-width=".8"/><circle cx="82" cy="46" r="5.2" fill="#0b1020" stroke="#a6b6c9"/><circle cx="82" cy="60" r="5.2" fill="#0b1020" stroke="#a6b6c9"/><circle cx="96" cy="53" r="5.2" fill="#0b1020" stroke="#a6b6c9"/><rect x="52" y="30" width="62" height="136" rx="13" fill="url(#a2w)" opacity=".35"/></g><g transform="rotate(5 130 100)"><rect x="100" y="26" width="68" height="144" rx="15" fill="url(#a2b)"/><rect x="104" y="30" width="60" height="136" rx="11" fill="#05070f"/><rect x="106" y="32" width="56" height="132" rx="9" fill="url(#a2s)"/><path d="M106 120q28-30 56-8v52h-56z" fill="#fff" opacity=".13"/><rect x="123" y="36" width="22" height="6" rx="3" fill="#05070f"/><text x="134" y="84" text-anchor="middle" font-size="22" font-weight="700" fill="#fff" font-family="Inter,sans-serif">9:41</text><rect x="100" y="26" width="68" height="144" rx="15" fill="none" stroke="#a6b6c9" stroke-opacity=".7"/></g></svg>